<svg width="699.4475585937499px" height="207.21246948242188px" xmlns="http://www.w3.org/2000/svg" viewBox="-99.72377929687497 -28.60623474121094 699.4475585937499 207.21246948242188" style="background: rgb(20, 11, 52);" preserveAspectRatio="xMidYMid"><defs><linearGradient id="editing-outline-gradient" x1="1.3660254037844386" x2="-0.3660254037844386" y1="1" y2="-1.1102230246251565e-16"><stop offset="0" stop-color="#84206b"></stop><stop offset="1" stop-color="#e55c30"></stop></linearGradient><filter id="editing-outline" x="-100%" y="-100%" width="300%" height="300%"><feMorphology in="SourceGraphic" operator="dilate" radius="2" result="outline"></feMorphology><feComposite operator="out" in="outline" in2="SourceAlpha"></feComposite></filter></defs><g filter="url(#editing-outline)"><g transform="translate(0.06498908996582031, 120.18500137329102)"><path d="M36.04-21.88L36.04-11.08L3.08-31.59L3.08-39.41L36.04-60.67L36.04-49.49L11.46-35.90L36.04-21.88ZM86.06-7.25L85.11 0L49.26 0L49.26-70.57L58.87-70.57L58.87-7.25L86.06-7.25ZM134.18-34.39L134.18 0L126.79 0L125.28-7.44L125.28-7.44Q123.85-2.56 120.14-0.92L120.14-0.92L120.14-0.92Q116.42 0.71 109.27 0.71L109.27 0.71L109.27 0.71Q104.53 0.71 101.50-0.21L101.50-0.21L101.50-0.21Q98.47-1.14 96.67-3.32L96.67-3.32L96.67-3.32Q94.87-5.49 94.18-8.64L94.18-8.64L94.18-8.64Q93.50-11.79 93.50-16.77L93.50-16.77L93.50-16.77Q93.50-18.99 94.28-20.75L94.28-20.75L94.28-20.75Q95.06-22.50 96.41-23.73L96.41-23.73L96.41-23.73Q97.76-24.96 100.01-25.86L100.01-25.86L100.01-25.86Q102.26-26.76 104.67-27.28L104.67-27.28L104.67-27.28Q107.09-27.80 110.52-28.11L110.52-28.11L110.52-28.11Q113.96-28.42 117.22-28.51L117.22-28.51L117.22-28.51Q120.49-28.61 124.85-28.61L124.85-28.61L124.85-42.67L124.85-42.67Q124.85-45.09 122.58-46.01L122.58-46.01L122.58-46.01Q120.30-46.94 114.48-46.94L114.48-46.94L114.48-46.94Q110.40-46.94 108.37-46.75L108.37-46.75L108.37-46.75Q106.33-46.56 105.26-45.63L105.26-45.63L105.26-45.63Q104.20-44.71 104.03-43.81L104.03-43.81L104.03-43.81Q103.87-42.91 103.82-40.45L103.82-40.45L103.82-40.45Q103.77-39.55 103.77-39.03L103.77-39.03L96.53-39.31L96.53-39.31Q96.43-40.07 96.43-41.54L96.43-41.54L96.43-41.54Q96.43-44.71 97.36-46.91L97.36-46.91L97.36-46.91Q98.28-49.12 99.75-50.37L99.75-50.37L99.75-50.37Q101.22-51.63 103.77-52.34L103.77-52.34L103.77-52.34Q106.33-53.05 108.84-53.24L108.84-53.24L108.84-53.24Q111.35-53.43 115.09-53.43L115.09-53.43L115.09-53.43Q120.78-53.43 124.33-52.55L124.33-52.55L124.33-52.55Q127.88-51.67 130.15-49.40L130.15-49.40L130.15-49.40Q132.43-47.13 133.30-43.60L133.30-43.60L133.30-43.60Q134.18-40.07 134.18-34.39L134.18-34.39ZM124.85-14.87L124.85-14.87L124.85-22.97L124.85-22.97Q115.52-22.97 110.50-22.26L110.50-22.26L110.50-22.26Q105.48-21.55 103.80-20.30L103.80-20.30L103.80-20.30Q102.12-19.04 102.12-16.77L102.12-16.77L102.12-16.77Q102.12-16.67 102.12-16.48L102.12-16.48L102.12-16.48Q102.12-9.28 103.30-7.53L103.30-7.53L103.30-7.53Q104.48-5.78 110.55-5.78L110.55-5.78L110.55-5.78Q115.71-5.78 118.93-7.01L118.93-7.01L118.93-7.01Q122.15-8.24 123.41-10.16L123.41-10.16L123.41-10.16Q124.66-12.08 124.85-14.87ZM189.64-28.84L189.64 0L180.31 0L180.31-31.45L180.31-31.45Q180.31-34.48 180.29-36.30L180.29-36.30L180.29-36.30Q180.26-38.13 180.10-39.97L180.10-39.97L180.10-39.97Q179.93-41.82 179.74-42.75L179.74-42.75L179.74-42.75Q179.55-43.67 179.06-44.59L179.06-44.59L179.06-44.59Q178.56-45.52 178.04-45.85L178.04-45.85L178.04-45.85Q177.52-46.18 176.52-46.49L176.52-46.49L176.52-46.49Q175.53-46.79 174.53-46.84L174.53-46.84L174.53-46.84Q173.54-46.89 171.88-46.89L171.88-46.89L171.88-46.89Q168.28-46.89 165.75-46.49L165.75-46.49L165.75-46.49Q163.21-46.08 161.60-45.37L161.60-45.37L161.60-45.37Q159.99-44.66 159.12-43.38L159.12-43.38L159.12-43.38Q158.24-42.11 157.91-40.61L157.91-40.61L157.91-40.61Q157.58-39.12 157.58-36.94L157.58-36.94L157.58-36.94Q157.58-35.71 157.72-32.66L157.72-32.66L157.72-32.66Q157.86-29.60 157.86-27.71L157.86-27.71L157.86 0L148.53 0L148.53-51.96L157.06-51.96L157.96-46.13L157.96-46.13Q159.19-50.02 163.40-51.72L163.40-51.72L163.40-51.72Q167.62-53.43 173.44-53.43L173.44-53.43L173.44-53.43Q176.19-53.43 178.32-53.09L178.32-53.09L178.32-53.09Q180.45-52.76 182.11-51.98L182.11-51.98L182.11-51.98Q183.77-51.20 184.98-50.21L184.98-50.21L184.98-50.21Q186.19-49.21 187.01-47.58L187.01-47.58L187.01-47.58Q187.84-45.94 188.36-44.24L188.36-44.24L188.36-44.24Q188.88-42.53 189.17-39.97L189.17-39.97L189.17-39.97Q189.45-37.42 189.55-34.88L189.55-34.88L189.55-34.88Q189.64-32.35 189.64-28.84L189.64-28.84ZM236.48-51.96L244.96-51.96L244.96-6.58L244.96-6.58Q244.96-1.89 244.66 1.33L244.66 1.33L244.66 1.33Q244.35 4.55 243.52 7.34L243.52 7.34L243.52 7.34Q242.69 10.14 241.27 11.82L241.27 11.82L241.27 11.82Q239.85 13.50 237.50 14.73L237.50 14.73L237.50 14.73Q235.16 15.96 231.99 16.44L231.99 16.44L231.99 16.44Q228.81 16.91 224.36 16.91L224.36 16.91L224.36 16.91Q215.08 16.91 209.58 14.97L209.58 14.97L210.20 8.53L210.20 8.53Q215.50 9.99 222.80 9.99L222.80 9.99L222.80 9.99Q226.25 9.99 228.65 9.61L228.65 9.61L228.65 9.61Q231.04 9.24 232.39 8.67L232.39 8.67L232.39 8.67Q233.74 8.10 234.47 7.03L234.47 7.03L234.47 7.03Q235.21 5.97 235.42 4.93L235.42 4.93L235.42 4.93Q235.63 3.88 235.63 2.27L235.63 2.27L235.58-6.20L235.58-6.20Q234.31-2.89 231.18-1.37L231.18-1.37L231.18-1.37Q228.05 0.14 222.37 0.14L222.37 0.14L222.37 0.14Q218.30 0.14 215.27-0.43L215.27-0.43L215.27-0.43Q212.23-0.99 210.10-1.85L210.10-1.85L210.10-1.85Q207.97-2.70 206.57-4.52L206.57-4.52L206.57-4.52Q205.18-6.35 204.37-7.98L204.37-7.98L204.37-7.98Q203.57-9.61 203.19-12.67L203.19-12.67L203.19-12.67Q202.81-15.72 202.71-18.16L202.71-18.16L202.71-18.16Q202.62-20.60 202.62-24.82L202.62-24.82L202.62-24.82Q202.62-30.17 202.71-33.20L202.71-33.20L202.71-33.20Q202.81-36.23 203.14-39.76L203.14-39.76L203.14-39.76Q203.47-43.29 204.23-45.09L204.23-45.09L204.23-45.09Q204.99-46.89 206.20-48.76L206.20-48.76L206.20-48.76Q207.40-50.63 209.35-51.44L209.35-51.44L209.35-51.44Q211.29-52.24 213.92-52.76L213.92-52.76L213.92-52.76Q216.54-53.28 220.19-53.28L220.19-53.28L220.19-53.28Q226.40-53.28 230.14-51.60L230.14-51.60L230.14-51.60Q233.88-49.92 235.58-46.18L235.58-46.18L236.48-51.96ZM235.63-10.56L235.63-10.56L235.63-39.45L235.63-39.45Q235.63-43.43 233.00-45.16L233.00-45.16L233.00-45.16Q230.38-46.89 223.60-46.89L223.60-46.89L223.60-46.89Q216.97-46.89 214.51-45.71L214.51-45.71L214.51-45.71Q211.86-44.43 211.86-35.33L211.86-35.33L211.86-35.33Q211.86-21.65 212.23-11.46L212.23-11.46L212.23-11.46Q212.38-9.24 213.40-8.19L213.40-8.19L213.40-8.19Q214.41-7.15 216.88-6.75L216.88-6.75L216.88-6.75Q219.34-6.35 224.60-6.35L224.60-6.35L224.60-6.35Q235.16-6.35 235.63-10.56ZM298.29-70.57L298.29-63.28L279.87-63.28L279.87 0L270.25 0L270.25-63.28L252.21-63.28L252.21-70.57L298.29-70.57ZM315.49-51.96L315.49 0L306.16 0L306.16-51.96L315.49-51.96ZM306.16-72.04L315.49-72.04L315.49-63.85L306.16-63.85L306.16-72.04ZM373.08-25.62L373.08-25.62L373.08-25.62Q373.08-21.27 372.91-18.23L372.91-18.23L372.91-18.23Q372.75-15.20 372.30-12.22L372.30-12.22L372.30-12.22Q371.85-9.24 370.97-7.34L370.97-7.34L370.97-7.34Q370.10-5.45 368.70-3.77L368.70-3.77L368.70-3.77Q367.30-2.08 365.27-1.18L365.27-1.18L365.27-1.18Q363.23-0.28 360.48 0.21L360.48 0.21L360.48 0.21Q357.73 0.71 354.09 0.71L354.09 0.71L354.09 0.71Q341.58 0.71 339.78-4.88L339.78-4.88L339.78 17.62L330.45 18.33L330.45-51.96L338.93-51.96L339.83-46.23L339.83-46.23Q342.72-53.43 354.99-53.43L354.99-53.43L354.99-53.43Q357.50-53.43 359.56-53.21L359.56-53.21L359.56-53.21Q361.62-53.00 363.30-52.43L363.30-52.43L363.30-52.43Q364.98-51.86 366.28-51.20L366.28-51.20L366.28-51.20Q367.59-50.54 368.60-49.38L368.60-49.38L368.60-49.38Q369.62-48.22 370.33-47.03L370.33-47.03L370.33-47.03Q371.04-45.85 371.54-44.02L371.54-44.02L371.54-44.02Q372.04-42.20 372.35-40.45L372.35-40.45L372.35-40.45Q372.65-38.70 372.82-36.16L372.82-36.16L372.82-36.16Q372.99-33.63 373.03-31.28L373.03-31.28L373.03-31.28Q373.08-28.94 373.08-25.62ZM363.75-28.70L363.75-28.70L363.75-28.70Q363.66-38.22 363.47-41.30L363.47-41.30L363.47-41.30Q363.28-44.62 360.98-45.75L360.98-45.75L360.98-45.75Q358.68-46.89 351.91-46.89L351.91-46.89L351.91-46.89Q343.34-46.89 340.92-44.14L340.92-44.14L340.92-44.14Q339.59-42.20 339.59-32.82L339.59-32.82L339.59-32.82Q339.59-30.93 339.67-27.19L339.67-27.19L339.67-27.19Q339.74-23.44 339.74-21.79L339.74-21.79L339.74-21.79Q339.74-20.13 339.62-17.52L339.62-17.52L339.62-17.52Q339.50-14.92 339.50-13.92L339.50-13.92L339.50-13.92Q339.50-11.04 340.42-9.38L340.42-9.38L340.42-9.38Q341.35-7.72 344.12-6.75L344.12-6.75L344.12-6.75Q346.89-5.78 351.91-5.78L351.91-5.78L351.91-5.78Q358.82-5.78 361.24-6.92L361.24-6.92L361.24-6.92Q363.84-8.15 363.84-19.66L363.84-19.66L363.84-19.66Q363.84-21.41 363.80-24.49L363.80-24.49L363.80-24.49Q363.75-27.57 363.75-28.70ZM423.81-14.40L423.81-14.40L423.81-14.40Q423.81-9.85 422.81-6.94L422.81-6.94L422.81-6.94Q421.82-4.03 419.52-2.32L419.52-2.32L419.52-2.32Q417.22-0.62 413.93 0.05L413.93 0.05L413.93 0.05Q410.64 0.71 405.62 0.71L405.62 0.71L405.62 0.71Q402.68 0.71 400.91 0.66L400.91 0.66L400.91 0.66Q399.13 0.62 396.81 0.43L396.81 0.43L396.81 0.43Q394.49 0.24 393.12-0.17L393.12-0.17L393.12-0.17Q391.74-0.57 390.16-1.26L390.16-1.26L390.16-1.26Q388.57-1.94 387.67-3.01L387.67-3.01L387.67-3.01Q386.77-4.07 385.96-5.54L385.96-5.54L385.96-5.54Q385.16-7.01 384.83-9.02L384.83-9.02L384.83-9.02Q384.50-11.04 384.50-13.59L384.50-13.59L391.84-15.49L391.84-15.49Q392.26-10.09 392.83-8.67L392.83-8.67L392.83-8.67Q393.68-6.73 396.38-6.20L396.38-6.20L396.38-6.20Q398.42-5.78 404.96-5.78L404.96-5.78L404.96-5.78Q408.89-5.78 410.81-6.13L410.81-6.13L410.81-6.13Q412.72-6.49 413.39-7.48L413.39-7.48L413.39-7.48Q415.28-9.05 415.28-18.14L415.28-18.14L415.28-18.14Q415.28-19.51 414.71-20.48L414.71-20.48L414.71-20.48Q414.14-21.46 413.34-21.95L413.34-21.95L413.34-21.95Q412.53-22.45 411.09-22.81L411.09-22.81L411.09-22.81Q409.65-23.16 408.48-23.28L408.48-23.28L408.48-23.28Q407.32-23.40 405.43-23.59L405.43-23.59L405.43-23.59Q403.54-23.78 402.40-23.92L402.40-23.92L402.40-23.92Q398.94-24.30 396.76-24.65L396.76-24.65L396.76-24.65Q394.58-25.01 392.36-25.72L392.36-25.72L392.36-25.72Q390.13-26.43 388.88-27.47L388.88-27.47L388.88-27.47Q387.62-28.51 386.58-30.17L386.58-30.17L386.58-30.17Q385.54-31.83 385.11-34.15L385.11-34.15L385.11-34.15Q384.68-36.47 384.68-39.69L384.68-39.69L384.68-39.69Q384.68-43.10 385.40-45.47L385.40-45.47L385.40-45.47Q386.11-47.84 387.48-49.40L387.48-49.40L387.48-49.40Q388.85-50.96 391.24-51.84L391.24-51.84L391.24-51.84Q393.64-52.72 396.62-53.07L396.62-53.07L396.62-53.07Q399.60-53.43 403.91-53.43L403.91-53.43L403.91-53.43Q406.61-53.43 408.34-53.35L408.34-53.35L408.34-53.35Q410.07-53.28 412.13-53.02L412.13-53.02L412.13-53.02Q414.19-52.76 415.47-52.29L415.47-52.29L415.47-52.29Q416.75-51.82 418.05-50.96L418.05-50.96L418.05-50.96Q419.35-50.11 420.06-48.86L420.06-48.86L420.06-48.86Q420.78-47.60 421.23-45.80L421.23-45.80L421.23-45.80Q421.68-44.00 421.68-41.68L421.68-41.68L415.33-39.74L415.33-39.74Q415.14-41.58 414.97-42.65L414.97-42.65L414.97-42.65Q414.81-43.72 414.24-44.62L414.24-44.62L414.24-44.62Q413.67-45.52 413.06-45.90L413.06-45.90L413.06-45.90Q412.44-46.27 410.95-46.56L410.95-46.56L410.95-46.56Q409.46-46.84 407.94-46.89L407.94-46.89L407.94-46.89Q406.42-46.94 403.58-46.94L403.58-46.94L403.58-46.94Q397.52-46.94 395.36-45.73L395.36-45.73L395.36-45.73Q393.21-44.52 393.21-41.77L393.21-41.77L393.21-36.94L393.21-36.94Q393.21-33.82 395.08-32.99L395.08-32.99L395.08-32.99Q396.95-32.16 405.10-31.12L405.10-31.12L405.10-31.12Q405.95-30.98 406.38-30.93L406.38-30.93L406.38-30.93Q409.65-30.55 411.56-30.22L411.56-30.22L411.56-30.22Q413.48-29.89 415.61-29.34L415.61-29.34L415.61-29.34Q417.74-28.80 418.86-28.06L418.86-28.06L418.86-28.06Q419.97-27.33 421.08-26.19L421.08-26.19L421.08-26.19Q422.20-25.06 422.69-23.40L422.69-23.40L422.69-23.40Q423.19-21.74 423.50-19.56L423.50-19.56L423.50-19.56Q423.81-17.38 423.81-14.40ZM447.30-71.80L455.73-71.80L438.39 1.23L429.92 1.23L447.30-71.80ZM496.79-39.41L496.79-31.59L463.73-11.08L463.73-21.83L488.36-35.85L463.73-49.49L463.73-60.67L496.79-39.41Z" fill="url(#editing-outline-gradient)"></path></g></g><style>text {
  font-size: 64px;
  font-family: Arial Black;
  dominant-baseline: central;
  text-anchor: middle;
}</style></svg>