<svg width="549.422509765625px" height="128.03500976562498px" xmlns="http://www.w3.org/2000/svg" viewBox="-24.71125488281251 10.982495117187511 549.422509765625 128.03500976562498" style="background: rgba(0, 0, 0, 0);" preserveAspectRatio="xMidYMid"><defs><linearGradient id="editing-shiny-gradient" x1="0.42178276747988463" x2="0.5782172325201154" y1="0.9938441702975689" y2="0.006155829702431115" gradientUnits="objectBoundingBox"><stop offset="0.0" stop-color="#ffb200"></stop><stop offset="0.5" stop-color="#e10057"></stop><stop offset="1.0" stop-color="#5A1A80"></stop></linearGradient><linearGradient id="editing-shiny-gradient2" x1="0" x2="0" y1="0" y2="1"><stop offset="0.2" stop-color="#fff" stop-opacity="0.8"></stop><stop offset="0.8" stop-color="#fff" stop-opacity="0"></stop></linearGradient><filter id="editing-shiny2" x="-100%" y="-100%" width="300%" height="300%"><feMorphology operator="erode" radius="2"></feMorphology></filter><filter id="editing-shiny" x="-100%" y="-100%" width="300%" height="300%"><feFlood flood-color="#fff" result="flood"></feFlood><feConvolveMatrix in="SourceGraphic" result="conv" order="8,8" divisor="1" kernelMatrix="0 0 0 0 0 0 0 0 0 0 0 1 1 0 0 0 0 0 0 1 1 0 0 0 0 0 1 0 0 1 0 0 0 0 1 0 0 1 0 0 0 1 0 0 0 0 1 0 0 1 1 0 0 1 1 0 0 0 0 1 1 0 0 0 "></feConvolveMatrix><feOffset dx="0" dy="4" in="conv" result="offset"></feOffset><feComposite operator="in" in="flood" in2="offset" result="comp"></feComposite><feGaussianBlur in="offset" stdDeviation="3" result="shadow"></feGaussianBlur><feColorMatrix in="shadow" type="matrix" values="0.7 0 0 0 0  0 0.7 0 0 0  0 0 0.7 0 0  0 0 0 0.3 0" result="dark-shadow"></feColorMatrix><feOffset dx="0" dy="4" in="dark-shadow" result="offset-shadow"></feOffset><feOffset dx="0" dy="2" in="conv" result="offset-2"></feOffset><feComposite operator="out" in="offset" in2="offset-2" result="edge-diff"></feComposite><feGaussianBlur in="edge-diff" stdDeviation="1" result="edge-blur"></feGaussianBlur><feColorMatrix in="edge-blur" result="edge-shadow" type="matrix" values="0 0 0 0 0  0 0 0 0 0  0 0 0 0 0  0 0 0 0.5 0"></feColorMatrix><feComposite operator="in" in="edge-shadow" in2="offset" result="edge-shadow-in"></feComposite><feOffset dx="0" dy="1" in="edge-shadow-in" result="edge-shadow-final"></feOffset><feMerge result="out"><feMergeNode in="offset-shadow"></feMergeNode><feMergeNode in="comp"></feMergeNode><feMergeNode in="edge-shadow-final"></feMergeNode><feMergeNode in="SourceGraphic"></feMergeNode></feMerge></filter></defs><g filter="url(#editing-shiny)"><g transform="translate(55.315001487731934, 110.52999877929688)"><path d="M4.53-20.66L25.44-39.22L34.50-39.22L13.72-20.66L34.50-2.09L25.44-2.09L4.53-20.66ZM44.75 0L44.75-49.09L52.41-49.09L52.41-6.31L67.44-6.31L67.44 0L44.75 0ZM71.78-9.63L71.78-9.63L71.78-9.63Q71.78-15.38 75.77-18.39L75.77-18.39L75.77-18.39Q79.75-21.41 87.50-21.41L87.50-21.41L92-21.41L92-23.34L92-23.34Q92-25.06 91.61-26.36L91.61-26.36L91.61-26.36Q91.22-27.66 90.36-28.53L90.36-28.53L90.36-28.53Q89.50-29.41 88.11-29.86L88.11-29.86L88.11-29.86Q86.72-30.31 84.72-30.31L84.72-30.31L84.72-30.31Q83.34-30.31 82.13-30.09L82.13-30.09L82.13-30.09Q80.91-29.88 79.72-29.50L79.72-29.50L79.72-29.50Q78.53-29.13 77.30-28.59L77.30-28.59L77.30-28.59Q76.06-28.06 74.69-27.47L74.69-27.47L74.69-33.69L74.69-33.69Q75.91-34.28 77.19-34.75L77.19-34.75L77.19-34.75Q78.47-35.22 79.91-35.55L79.91-35.55L79.91-35.55Q81.34-35.88 82.97-36.03L82.97-36.03L82.97-36.03Q84.59-36.19 86.50-36.19L86.50-36.19L86.50-36.19Q93.09-36.19 96.33-32.84L96.33-32.84L96.33-32.84Q99.56-29.50 99.56-23.09L99.56-23.09L99.56-8.13L99.56-8.13Q99.56-6.97 99.56-5.97L99.56-5.97L99.56-5.97Q99.56-4.97 99.64-4L99.64-4L99.64-4Q99.72-3.03 99.91-2.05L99.91-2.05L99.91-2.05Q100.09-1.06 100.47 0L100.47 0L92.75 0L92.75 0Q92.44-0.84 92.28-1.81L92.28-1.81L92.28-1.81Q92.13-2.78 92.06-3.78L92.06-3.78L92.06-3.78Q90.41-1.72 88.05-0.50L88.05-0.50L88.05-0.50Q85.69 0.72 82.53 0.72L82.53 0.72L82.53 0.72Q80.09 0.72 78.11-0.13L78.11-0.13L78.11-0.13Q76.13-0.97 74.72-2.39L74.72-2.39L74.72-2.39Q73.31-3.81 72.55-5.69L72.55-5.69L72.55-5.69Q71.78-7.56 71.78-9.63ZM79.44-10.66L79.44-10.66L79.44-10.66Q79.44-9.63 79.75-8.64L79.75-8.64L79.75-8.64Q80.06-7.66 80.73-6.88L80.73-6.88L80.73-6.88Q81.41-6.09 82.47-5.63L82.47-5.63L82.47-5.63Q83.53-5.16 85.03-5.16L85.03-5.16L85.03-5.16Q86.94-5.16 88.75-5.94L88.75-5.94L88.75-5.94Q90.56-6.72 92-8.31L92-8.31L92-16.31L87.78-16.31L87.78-16.31Q85.44-16.31 83.84-15.91L83.84-15.91L83.84-15.91Q82.25-15.50 81.27-14.75L81.27-14.75L81.27-14.75Q80.28-14 79.86-12.95L79.86-12.95L79.86-12.95Q79.44-11.91 79.44-10.66ZM110 0L110-35.47L116.66-35.47L117.09-31.50L117.09-31.50Q118.72-33.59 121.27-34.88L121.27-34.88L121.27-34.88Q123.81-36.16 127.50-36.16L127.50-36.16L127.50-36.16Q132.97-36.16 135.97-32.81L135.97-32.81L135.97-32.81Q138.97-29.47 138.97-22.59L138.97-22.59L138.97 0L131.41 0L131.41-22.34L131.41-22.34Q131.41-26.41 129.84-28.36L129.84-28.36L129.84-28.36Q128.28-30.31 125.44-30.31L125.44-30.31L125.44-30.31Q123.09-30.31 121.06-29.33L121.06-29.33L121.06-29.33Q119.03-28.34 117.56-26.31L117.56-26.31L117.56 0L110 0ZM147.66 6.28L147.66 6.28L147.66 6.28Q147.66 3.50 149.17 1.80L149.17 1.80L149.17 1.80Q150.69 0.09 153.19-0.91L153.19-0.91L153.19-0.91Q151.75-1.81 150.94-3.39L150.94-3.39L150.94-3.39Q150.13-4.97 150.09-6.72L150.09-6.72L150.09-6.72Q150.06-8.75 151.30-10.58L151.30-10.58L151.30-10.58Q152.53-12.41 154.81-13.47L154.81-13.47L154.81-13.47Q151.88-14.97 150.13-17.66L150.13-17.66L150.13-17.66Q148.38-20.34 148.38-24.13L148.38-24.13L148.38-24.13Q148.38-27.03 149.50-29.27L149.50-29.27L149.50-29.27Q150.63-31.50 152.52-33.03L152.52-33.03L152.52-33.03Q154.41-34.56 156.92-35.36L156.92-35.36L156.92-35.36Q159.44-36.16 162.25-36.16L162.25-36.16L162.25-36.16Q165-36.16 167.42-35.45L167.42-35.45L167.42-35.45Q169.84-34.75 171.75-33.41L171.75-33.41L171.75-33.41Q172.63-34.91 174.13-35.53L174.13-35.53L174.13-35.53Q175.63-36.16 177.41-36.16L177.41-36.16L180.44-36.16L180.44-30.53L178.72-30.53L178.72-30.53Q177.81-30.53 176.84-30.38L176.84-30.38L176.84-30.38Q175.88-30.22 175.06-29.88L175.06-29.88L175.06-29.88Q175.88-28.56 176.30-26.98L176.30-26.98L176.30-26.98Q176.72-25.41 176.72-23.59L176.72-23.59L176.72-23.59Q176.72-20.69 175.61-18.47L175.61-18.47L175.61-18.47Q174.50-16.25 172.59-14.73L172.59-14.73L172.59-14.73Q170.69-13.22 168.17-12.45L168.17-12.45L168.17-12.45Q165.66-11.69 162.84-11.69L162.84-11.69L162.84-11.69Q162.16-11.69 161.48-11.73L161.48-11.73L161.48-11.73Q160.81-11.78 160.19-11.84L160.19-11.84L160.19-11.84Q158.75-11.56 157.98-10.70L157.98-10.70L157.98-10.70Q157.22-9.84 157.22-8.34L157.22-8.34L157.22-8.34Q157.22-6.97 157.86-6.19L157.86-6.19L157.86-6.19Q158.50-5.41 159.53-5.03L159.53-5.03L159.53-5.03Q160.56-4.66 161.83-4.58L161.83-4.58L161.83-4.58Q163.09-4.50 164.34-4.50L164.34-4.50L164.34-4.50Q166.28-4.50 168.17-4.39L168.17-4.39L168.17-4.39Q170.06-4.28 171.75-3.92L171.75-3.92L171.75-3.92Q173.44-3.56 174.86-2.92L174.86-2.92L174.86-2.92Q176.28-2.28 177.33-1.19L177.33-1.19L177.33-1.19Q178.38-0.09 178.95 1.50L178.95 1.50L178.95 1.50Q179.53 3.09 179.53 5.31L179.53 5.31L179.53 5.31Q179.53 7.72 178.52 9.72L178.52 9.72L178.52 9.72Q177.50 11.72 175.47 13.17L175.47 13.17L175.47 13.17Q173.44 14.63 170.42 15.44L170.42 15.44L170.42 15.44Q167.41 16.25 163.38 16.25L163.38 16.25L163.38 16.25Q159.31 16.25 156.36 15.52L156.36 15.52L156.36 15.52Q153.41 14.78 151.47 13.45L151.47 13.45L151.47 13.45Q149.53 12.13 148.59 10.30L148.59 10.30L148.59 10.30Q147.66 8.47 147.66 6.28ZM162.50-17.22L162.50-17.22L162.50-17.22Q165.81-17.22 167.61-18.80L167.61-18.80L167.61-18.80Q169.41-20.38 169.41-23.88L169.41-23.88L169.41-23.88Q169.41-27.38 167.56-29L167.56-29L167.56-29Q165.72-30.63 162.59-30.63L162.59-30.63L162.59-30.63Q159.28-30.63 157.50-28.98L157.50-28.98L157.50-28.98Q155.72-27.34 155.72-23.84L155.72-23.84L155.72-23.84Q155.72-22.09 156.19-20.83L156.19-20.83L156.19-20.83Q156.66-19.56 157.53-18.77L157.53-18.77L157.53-18.77Q158.41-17.97 159.66-17.59L159.66-17.59L159.66-17.59Q160.91-17.22 162.50-17.22ZM155 5.34L155 5.34L155 5.34Q155 6.47 155.47 7.45L155.47 7.45L155.47 7.45Q155.94 8.44 156.98 9.17L156.98 9.17L156.98 9.17Q158.03 9.91 159.70 10.33L159.70 10.33L159.70 10.33Q161.38 10.75 163.81 10.75L163.81 10.75L163.81 10.75Q168.06 10.75 170.14 9.34L170.14 9.34L170.14 9.34Q172.22 7.94 172.22 5.59L172.22 5.59L172.22 5.59Q172.22 4.09 171.45 3.22L171.45 3.22L171.45 3.22Q170.69 2.34 169.39 1.89L169.39 1.89L169.39 1.89Q168.09 1.44 166.41 1.31L166.41 1.31L166.41 1.31Q164.72 1.19 162.91 1.19L162.91 1.19L162.91 1.19Q161.94 1.19 160.73 1.14L160.73 1.14L160.73 1.14Q159.53 1.09 158.47 1.03L158.47 1.03L158.47 1.03Q157.28 1.28 156.59 1.77L156.59 1.77L156.59 1.77Q155.91 2.25 155.56 2.83L155.56 2.83L155.56 2.83Q155.22 3.41 155.11 4.06L155.11 4.06L155.11 4.06Q155 4.72 155 5.34ZM195.78 0L195.78-42.78L184.16-42.78L184.16-49.09L215.03-49.09L215.03-42.78L203.44-42.78L203.44 0L195.78 0ZM226.56-43.28L226.56-43.28L226.56-43.28Q225.44-43.28 224.53-43.63L224.53-43.63L224.53-43.63Q223.63-43.97 222.97-44.59L222.97-44.59L222.97-44.59Q222.31-45.22 221.97-46.09L221.97-46.09L221.97-46.09Q221.63-46.97 221.63-48.03L221.63-48.03L221.63-48.03Q221.63-49.09 221.97-49.95L221.97-49.95L221.97-49.95Q222.31-50.81 222.97-51.44L222.97-51.44L222.97-51.44Q223.63-52.06 224.53-52.41L224.53-52.41L224.53-52.41Q225.44-52.75 226.56-52.75L226.56-52.75L226.56-52.75Q228.88-52.75 230.23-51.45L230.23-51.45L230.23-51.45Q231.59-50.16 231.59-48.03L231.59-48.03L231.59-48.03Q231.59-45.91 230.23-44.59L230.23-44.59L230.23-44.59Q228.88-43.28 226.56-43.28ZM222.81 0L222.81-35.47L230.31-35.47L230.31 0L222.81 0ZM247.84-1.16L247.97 4.41L247.97 16.25L240.41 16.25L240.41-35.47L247.09-35.47L247.50-32.69L247.50-32.69Q248.94-34.25 251.02-35.20L251.02-35.20L251.02-35.20Q253.09-36.16 256.09-36.16L256.09-36.16L256.09-36.16Q259.16-36.16 261.73-35.02L261.73-35.02L261.73-35.02Q264.31-33.88 266.19-31.63L266.19-31.63L266.19-31.63Q268.06-29.38 269.13-26.02L269.13-26.02L269.13-26.02Q270.19-22.66 270.19-18.22L270.19-18.22L270.19-18.22Q270.19-13.31 268.94-9.75L268.94-9.75L268.94-9.75Q267.69-6.19 265.56-3.86L265.56-3.86L265.56-3.86Q263.44-1.53 260.66-0.41L260.66-0.41L260.66-0.41Q257.88 0.72 254.84 0.72L254.84 0.72L254.84 0.72Q252.69 0.72 250.97 0.23L250.97 0.23L250.97 0.23Q249.25-0.25 247.84-1.16L247.84-1.16ZM247.97-28.03L247.97-6.59L247.97-6.59Q249.19-5.78 250.56-5.47L250.56-5.47L250.56-5.47Q251.94-5.16 253.50-5.16L253.50-5.16L253.50-5.16Q255.41-5.16 257.03-5.86L257.03-5.86L257.03-5.86Q258.66-6.56 259.83-8.08L259.83-8.08L259.83-8.08Q261-9.59 261.66-12L261.66-12L261.66-12Q262.31-14.41 262.31-17.81L262.31-17.81L262.31-17.81Q262.31-21.06 261.72-23.42L261.72-23.42L261.72-23.42Q261.13-25.78 260.05-27.31L260.05-27.31L260.05-27.31Q258.97-28.84 257.44-29.58L257.44-29.58L257.44-29.58Q255.91-30.31 254-30.31L254-30.31L254-30.31Q250.50-30.31 247.97-28.03L247.97-28.03ZM277.41-1.28L277.41-7.72L277.41-7.72Q279.72-6.31 282.16-5.70L282.16-5.70L282.16-5.70Q284.59-5.09 286.44-5.09L286.44-5.09L286.44-5.09Q289.19-5.09 290.69-6.14L290.69-6.14L290.69-6.14Q292.19-7.19 292.19-9.06L292.19-9.06L292.19-9.06Q292.19-10.13 291.67-10.89L291.67-10.89L291.67-10.89Q291.16-11.66 290.22-12.36L290.22-12.36L290.22-12.36Q289.28-13.06 287.95-13.78L287.95-13.78L287.95-13.78Q286.63-14.50 285-15.50L285-15.50L285-15.50Q283.50-16.41 282.09-17.42L282.09-17.42L282.09-17.42Q280.69-18.44 279.59-19.72L279.59-19.72L279.59-19.72Q278.50-21 277.84-22.64L277.84-22.64L277.84-22.64Q277.19-24.28 277.19-26.44L277.19-26.44L277.19-26.44Q277.19-28.56 277.98-30.34L277.98-30.34L277.98-30.34Q278.78-32.13 280.33-33.42L280.33-33.42L280.33-33.42Q281.88-34.72 284.17-35.44L284.17-35.44L284.17-35.44Q286.47-36.16 289.44-36.16L289.44-36.16L289.44-36.16Q290.22-36.16 291.20-36.08L291.20-36.08L291.20-36.08Q292.19-36 293.20-35.83L293.20-35.83L293.20-35.83Q294.22-35.66 295.17-35.36L295.17-35.36L295.17-35.36Q296.13-35.06 296.88-34.66L296.88-34.66L296.88-28.78L296.88-28.78Q296.28-29.13 295.45-29.45L295.45-29.45L295.45-29.45Q294.63-29.78 293.70-30.02L293.70-30.02L293.70-30.02Q292.78-30.25 291.84-30.39L291.84-30.39L291.84-30.39Q290.91-30.53 290.09-30.53L290.09-30.53L290.09-30.53Q288.66-30.53 287.61-30.22L287.61-30.22L287.61-30.22Q286.56-29.91 285.89-29.39L285.89-29.39L285.89-29.39Q285.22-28.88 284.89-28.16L284.89-28.16L284.89-28.16Q284.56-27.44 284.56-26.66L284.56-26.66L284.56-26.66Q284.56-25.66 285.02-24.86L285.02-24.86L285.02-24.86Q285.47-24.06 286.28-23.34L286.28-23.34L286.28-23.34Q287.09-22.63 288.23-21.92L288.23-21.92L288.23-21.92Q289.38-21.22 290.78-20.38L290.78-20.38L290.78-20.38Q292.25-19.50 293.78-18.50L293.78-18.50L293.78-18.50Q295.31-17.50 296.55-16.22L296.55-16.22L296.55-16.22Q297.78-14.94 298.58-13.27L298.58-13.27L298.58-13.27Q299.38-11.59 299.38-9.41L299.38-9.41L299.38-9.41Q299.38-7.16 298.52-5.30L298.52-5.30L298.52-5.30Q297.66-3.44 296.03-2.09L296.03-2.09L296.03-2.09Q294.41-0.75 292.05-0.02L292.05-0.02L292.05-0.02Q289.69 0.72 286.72 0.72L286.72 0.72L286.72 0.72Q284.38 0.72 281.92 0.22L281.92 0.22L281.92 0.22Q279.47-0.28 277.41-1.28L277.41-1.28ZM310.03 8.91L337.06-54.81L343.75-54.81L316.72 8.91L310.03 8.91ZM384.84-20.66L363.94-39.22L354.88-39.22L375.66-20.66L354.88-2.09L363.94-2.09L384.84-20.66Z" fill="url(#editing-shiny-gradient)"></path></g></g><g filter="url(#editing-shiny2)"><g transform="translate(55.315001487731934, 110.52999877929688)"><path d="M4.53-20.66L25.44-39.22L34.50-39.22L13.72-20.66L34.50-2.09L25.44-2.09L4.53-20.66ZM44.75 0L44.75-49.09L52.41-49.09L52.41-6.31L67.44-6.31L67.44 0L44.75 0ZM71.78-9.63L71.78-9.63L71.78-9.63Q71.78-15.38 75.77-18.39L75.77-18.39L75.77-18.39Q79.75-21.41 87.50-21.41L87.50-21.41L92-21.41L92-23.34L92-23.34Q92-25.06 91.61-26.36L91.61-26.36L91.61-26.36Q91.22-27.66 90.36-28.53L90.36-28.53L90.36-28.53Q89.50-29.41 88.11-29.86L88.11-29.86L88.11-29.86Q86.72-30.31 84.72-30.31L84.72-30.31L84.72-30.31Q83.34-30.31 82.13-30.09L82.13-30.09L82.13-30.09Q80.91-29.88 79.72-29.50L79.72-29.50L79.72-29.50Q78.53-29.13 77.30-28.59L77.30-28.59L77.30-28.59Q76.06-28.06 74.69-27.47L74.69-27.47L74.69-33.69L74.69-33.69Q75.91-34.28 77.19-34.75L77.19-34.75L77.19-34.75Q78.47-35.22 79.91-35.55L79.91-35.55L79.91-35.55Q81.34-35.88 82.97-36.03L82.97-36.03L82.97-36.03Q84.59-36.19 86.50-36.19L86.50-36.19L86.50-36.19Q93.09-36.19 96.33-32.84L96.33-32.84L96.33-32.84Q99.56-29.50 99.56-23.09L99.56-23.09L99.56-8.13L99.56-8.13Q99.56-6.97 99.56-5.97L99.56-5.97L99.56-5.97Q99.56-4.97 99.64-4L99.64-4L99.64-4Q99.72-3.03 99.91-2.05L99.91-2.05L99.91-2.05Q100.09-1.06 100.47 0L100.47 0L92.75 0L92.75 0Q92.44-0.84 92.28-1.81L92.28-1.81L92.28-1.81Q92.13-2.78 92.06-3.78L92.06-3.78L92.06-3.78Q90.41-1.72 88.05-0.50L88.05-0.50L88.05-0.50Q85.69 0.72 82.53 0.72L82.53 0.72L82.53 0.72Q80.09 0.72 78.11-0.13L78.11-0.13L78.11-0.13Q76.13-0.97 74.72-2.39L74.72-2.39L74.72-2.39Q73.31-3.81 72.55-5.69L72.55-5.69L72.55-5.69Q71.78-7.56 71.78-9.63ZM79.44-10.66L79.44-10.66L79.44-10.66Q79.44-9.63 79.75-8.64L79.75-8.64L79.75-8.64Q80.06-7.66 80.73-6.88L80.73-6.88L80.73-6.88Q81.41-6.09 82.47-5.63L82.47-5.63L82.47-5.63Q83.53-5.16 85.03-5.16L85.03-5.16L85.03-5.16Q86.94-5.16 88.75-5.94L88.75-5.94L88.75-5.94Q90.56-6.72 92-8.31L92-8.31L92-16.31L87.78-16.31L87.78-16.31Q85.44-16.31 83.84-15.91L83.84-15.91L83.84-15.91Q82.25-15.50 81.27-14.75L81.27-14.75L81.27-14.75Q80.28-14 79.86-12.95L79.86-12.95L79.86-12.95Q79.44-11.91 79.44-10.66ZM110 0L110-35.47L116.66-35.47L117.09-31.50L117.09-31.50Q118.72-33.59 121.27-34.88L121.27-34.88L121.27-34.88Q123.81-36.16 127.50-36.16L127.50-36.16L127.50-36.16Q132.97-36.16 135.97-32.81L135.97-32.81L135.97-32.81Q138.97-29.47 138.97-22.59L138.97-22.59L138.97 0L131.41 0L131.41-22.34L131.41-22.34Q131.41-26.41 129.84-28.36L129.84-28.36L129.84-28.36Q128.28-30.31 125.44-30.31L125.44-30.31L125.44-30.31Q123.09-30.31 121.06-29.33L121.06-29.33L121.06-29.33Q119.03-28.34 117.56-26.31L117.56-26.31L117.56 0L110 0ZM147.66 6.28L147.66 6.28L147.66 6.28Q147.66 3.50 149.17 1.80L149.17 1.80L149.17 1.80Q150.69 0.09 153.19-0.91L153.19-0.91L153.19-0.91Q151.75-1.81 150.94-3.39L150.94-3.39L150.94-3.39Q150.13-4.97 150.09-6.72L150.09-6.72L150.09-6.72Q150.06-8.75 151.30-10.58L151.30-10.58L151.30-10.58Q152.53-12.41 154.81-13.47L154.81-13.47L154.81-13.47Q151.88-14.97 150.13-17.66L150.13-17.66L150.13-17.66Q148.38-20.34 148.38-24.13L148.38-24.13L148.38-24.13Q148.38-27.03 149.50-29.27L149.50-29.27L149.50-29.27Q150.63-31.50 152.52-33.03L152.52-33.03L152.52-33.03Q154.41-34.56 156.92-35.36L156.92-35.36L156.92-35.36Q159.44-36.16 162.25-36.16L162.25-36.16L162.25-36.16Q165-36.16 167.42-35.45L167.42-35.45L167.42-35.45Q169.84-34.75 171.75-33.41L171.75-33.41L171.75-33.41Q172.63-34.91 174.13-35.53L174.13-35.53L174.13-35.53Q175.63-36.16 177.41-36.16L177.41-36.16L180.44-36.16L180.44-30.53L178.72-30.53L178.72-30.53Q177.81-30.53 176.84-30.38L176.84-30.38L176.84-30.38Q175.88-30.22 175.06-29.88L175.06-29.88L175.06-29.88Q175.88-28.56 176.30-26.98L176.30-26.98L176.30-26.98Q176.72-25.41 176.72-23.59L176.72-23.59L176.72-23.59Q176.72-20.69 175.61-18.47L175.61-18.47L175.61-18.47Q174.50-16.25 172.59-14.73L172.59-14.73L172.59-14.73Q170.69-13.22 168.17-12.45L168.17-12.45L168.17-12.45Q165.66-11.69 162.84-11.69L162.84-11.69L162.84-11.69Q162.16-11.69 161.48-11.73L161.48-11.73L161.48-11.73Q160.81-11.78 160.19-11.84L160.19-11.84L160.19-11.84Q158.75-11.56 157.98-10.70L157.98-10.70L157.98-10.70Q157.22-9.84 157.22-8.34L157.22-8.34L157.22-8.34Q157.22-6.97 157.86-6.19L157.86-6.19L157.86-6.19Q158.50-5.41 159.53-5.03L159.53-5.03L159.53-5.03Q160.56-4.66 161.83-4.58L161.83-4.58L161.83-4.58Q163.09-4.50 164.34-4.50L164.34-4.50L164.34-4.50Q166.28-4.50 168.17-4.39L168.17-4.39L168.17-4.39Q170.06-4.28 171.75-3.92L171.75-3.92L171.75-3.92Q173.44-3.56 174.86-2.92L174.86-2.92L174.86-2.92Q176.28-2.28 177.33-1.19L177.33-1.19L177.33-1.19Q178.38-0.09 178.95 1.50L178.95 1.50L178.95 1.50Q179.53 3.09 179.53 5.31L179.53 5.31L179.53 5.31Q179.53 7.72 178.52 9.72L178.52 9.72L178.52 9.72Q177.50 11.72 175.47 13.17L175.47 13.17L175.47 13.17Q173.44 14.63 170.42 15.44L170.42 15.44L170.42 15.44Q167.41 16.25 163.38 16.25L163.38 16.25L163.38 16.25Q159.31 16.25 156.36 15.52L156.36 15.52L156.36 15.52Q153.41 14.78 151.47 13.45L151.47 13.45L151.47 13.45Q149.53 12.13 148.59 10.30L148.59 10.30L148.59 10.30Q147.66 8.47 147.66 6.28ZM162.50-17.22L162.50-17.22L162.50-17.22Q165.81-17.22 167.61-18.80L167.61-18.80L167.61-18.80Q169.41-20.38 169.41-23.88L169.41-23.88L169.41-23.88Q169.41-27.38 167.56-29L167.56-29L167.56-29Q165.72-30.63 162.59-30.63L162.59-30.63L162.59-30.63Q159.28-30.63 157.50-28.98L157.50-28.98L157.50-28.98Q155.72-27.34 155.72-23.84L155.72-23.84L155.72-23.84Q155.72-22.09 156.19-20.83L156.19-20.83L156.19-20.83Q156.66-19.56 157.53-18.77L157.53-18.77L157.53-18.77Q158.41-17.97 159.66-17.59L159.66-17.59L159.66-17.59Q160.91-17.22 162.50-17.22ZM155 5.34L155 5.34L155 5.34Q155 6.47 155.47 7.45L155.47 7.45L155.47 7.45Q155.94 8.44 156.98 9.17L156.98 9.17L156.98 9.17Q158.03 9.91 159.70 10.33L159.70 10.33L159.70 10.33Q161.38 10.75 163.81 10.75L163.81 10.75L163.81 10.75Q168.06 10.75 170.14 9.34L170.14 9.34L170.14 9.34Q172.22 7.94 172.22 5.59L172.22 5.59L172.22 5.59Q172.22 4.09 171.45 3.22L171.45 3.22L171.45 3.22Q170.69 2.34 169.39 1.89L169.39 1.89L169.39 1.89Q168.09 1.44 166.41 1.31L166.41 1.31L166.41 1.31Q164.72 1.19 162.91 1.19L162.91 1.19L162.91 1.19Q161.94 1.19 160.73 1.14L160.73 1.14L160.73 1.14Q159.53 1.09 158.47 1.03L158.47 1.03L158.47 1.03Q157.28 1.28 156.59 1.77L156.59 1.77L156.59 1.77Q155.91 2.25 155.56 2.83L155.56 2.83L155.56 2.83Q155.22 3.41 155.11 4.06L155.11 4.06L155.11 4.06Q155 4.72 155 5.34ZM195.78 0L195.78-42.78L184.16-42.78L184.16-49.09L215.03-49.09L215.03-42.78L203.44-42.78L203.44 0L195.78 0ZM226.56-43.28L226.56-43.28L226.56-43.28Q225.44-43.28 224.53-43.63L224.53-43.63L224.53-43.63Q223.63-43.97 222.97-44.59L222.97-44.59L222.97-44.59Q222.31-45.22 221.97-46.09L221.97-46.09L221.97-46.09Q221.63-46.97 221.63-48.03L221.63-48.03L221.63-48.03Q221.63-49.09 221.97-49.95L221.97-49.95L221.97-49.95Q222.31-50.81 222.97-51.44L222.97-51.44L222.97-51.44Q223.63-52.06 224.53-52.41L224.53-52.41L224.53-52.41Q225.44-52.75 226.56-52.75L226.56-52.75L226.56-52.75Q228.88-52.75 230.23-51.45L230.23-51.45L230.23-51.45Q231.59-50.16 231.59-48.03L231.59-48.03L231.59-48.03Q231.59-45.91 230.23-44.59L230.23-44.59L230.23-44.59Q228.88-43.28 226.56-43.28ZM222.81 0L222.81-35.47L230.31-35.47L230.31 0L222.81 0ZM247.84-1.16L247.97 4.41L247.97 16.25L240.41 16.25L240.41-35.47L247.09-35.47L247.50-32.69L247.50-32.69Q248.94-34.25 251.02-35.20L251.02-35.20L251.02-35.20Q253.09-36.16 256.09-36.16L256.09-36.16L256.09-36.16Q259.16-36.16 261.73-35.02L261.73-35.02L261.73-35.02Q264.31-33.88 266.19-31.63L266.19-31.63L266.19-31.63Q268.06-29.38 269.13-26.02L269.13-26.02L269.13-26.02Q270.19-22.66 270.19-18.22L270.19-18.22L270.19-18.22Q270.19-13.31 268.94-9.75L268.94-9.75L268.94-9.75Q267.69-6.19 265.56-3.86L265.56-3.86L265.56-3.86Q263.44-1.53 260.66-0.41L260.66-0.41L260.66-0.41Q257.88 0.72 254.84 0.72L254.84 0.72L254.84 0.72Q252.69 0.72 250.97 0.23L250.97 0.23L250.97 0.23Q249.25-0.25 247.84-1.16L247.84-1.16ZM247.97-28.03L247.97-6.59L247.97-6.59Q249.19-5.78 250.56-5.47L250.56-5.47L250.56-5.47Q251.94-5.16 253.50-5.16L253.50-5.16L253.50-5.16Q255.41-5.16 257.03-5.86L257.03-5.86L257.03-5.86Q258.66-6.56 259.83-8.08L259.83-8.08L259.83-8.08Q261-9.59 261.66-12L261.66-12L261.66-12Q262.31-14.41 262.31-17.81L262.31-17.81L262.31-17.81Q262.31-21.06 261.72-23.42L261.72-23.42L261.72-23.42Q261.13-25.78 260.05-27.31L260.05-27.31L260.05-27.31Q258.97-28.84 257.44-29.58L257.44-29.58L257.44-29.58Q255.91-30.31 254-30.31L254-30.31L254-30.31Q250.50-30.31 247.97-28.03L247.97-28.03ZM277.41-1.28L277.41-7.72L277.41-7.72Q279.72-6.31 282.16-5.70L282.16-5.70L282.16-5.70Q284.59-5.09 286.44-5.09L286.44-5.09L286.44-5.09Q289.19-5.09 290.69-6.14L290.69-6.14L290.69-6.14Q292.19-7.19 292.19-9.06L292.19-9.06L292.19-9.06Q292.19-10.13 291.67-10.89L291.67-10.89L291.67-10.89Q291.16-11.66 290.22-12.36L290.22-12.36L290.22-12.36Q289.28-13.06 287.95-13.78L287.95-13.78L287.95-13.78Q286.63-14.50 285-15.50L285-15.50L285-15.50Q283.50-16.41 282.09-17.42L282.09-17.42L282.09-17.42Q280.69-18.44 279.59-19.72L279.59-19.72L279.59-19.72Q278.50-21 277.84-22.64L277.84-22.64L277.84-22.64Q277.19-24.28 277.19-26.44L277.19-26.44L277.19-26.44Q277.19-28.56 277.98-30.34L277.98-30.34L277.98-30.34Q278.78-32.13 280.33-33.42L280.33-33.42L280.33-33.42Q281.88-34.72 284.17-35.44L284.17-35.44L284.17-35.44Q286.47-36.16 289.44-36.16L289.44-36.16L289.44-36.16Q290.22-36.16 291.20-36.08L291.20-36.08L291.20-36.08Q292.19-36 293.20-35.83L293.20-35.83L293.20-35.83Q294.22-35.66 295.17-35.36L295.17-35.36L295.17-35.36Q296.13-35.06 296.88-34.66L296.88-34.66L296.88-28.78L296.88-28.78Q296.28-29.13 295.45-29.45L295.45-29.45L295.45-29.45Q294.63-29.78 293.70-30.02L293.70-30.02L293.70-30.02Q292.78-30.25 291.84-30.39L291.84-30.39L291.84-30.39Q290.91-30.53 290.09-30.53L290.09-30.53L290.09-30.53Q288.66-30.53 287.61-30.22L287.61-30.22L287.61-30.22Q286.56-29.91 285.89-29.39L285.89-29.39L285.89-29.39Q285.22-28.88 284.89-28.16L284.89-28.16L284.89-28.16Q284.56-27.44 284.56-26.66L284.56-26.66L284.56-26.66Q284.56-25.66 285.02-24.86L285.02-24.86L285.02-24.86Q285.47-24.06 286.28-23.34L286.28-23.34L286.28-23.34Q287.09-22.63 288.23-21.92L288.23-21.92L288.23-21.92Q289.38-21.22 290.78-20.38L290.78-20.38L290.78-20.38Q292.25-19.50 293.78-18.50L293.78-18.50L293.78-18.50Q295.31-17.50 296.55-16.22L296.55-16.22L296.55-16.22Q297.78-14.94 298.58-13.27L298.58-13.27L298.58-13.27Q299.38-11.59 299.38-9.41L299.38-9.41L299.38-9.41Q299.38-7.16 298.52-5.30L298.52-5.30L298.52-5.30Q297.66-3.44 296.03-2.09L296.03-2.09L296.03-2.09Q294.41-0.75 292.05-0.02L292.05-0.02L292.05-0.02Q289.69 0.72 286.72 0.72L286.72 0.72L286.72 0.72Q284.38 0.72 281.92 0.22L281.92 0.22L281.92 0.22Q279.47-0.28 277.41-1.28L277.41-1.28ZM310.03 8.91L337.06-54.81L343.75-54.81L316.72 8.91L310.03 8.91ZM384.84-20.66L363.94-39.22L354.88-39.22L375.66-20.66L354.88-2.09L363.94-2.09L384.84-20.66Z" fill="url(#editing-shiny-gradient2)"></path></g></g><style>text {
  font-size: 64px;
  font-family: Arial Black;
  dominant-baseline: central;
  text-anchor: middle;
}</style></svg>